<?xml version="1.0" encoding="UTF-8" standalone="no"?>
<!DOCTYPE svg PUBLIC "-//W3C//DTD SVG 1.1//EN" "http://www.w3.org/Graphics/SVG/1.1/DTD/svg11.dtd">
<svg width="100%" height="100%" viewBox="0 0 220 979" version="1.1" xmlns="http://www.w3.org/2000/svg" xmlns:xlink="http://www.w3.org/1999/xlink" xml:space="preserve" xmlns:affinity="https://www.affinity.studio/" style="fill-rule:evenodd;clip-rule:evenodd;stroke-linejoin:round;stroke-miterlimit:2;">
    <g transform="matrix(1,0,0,1,-1751.257526,-99.250399)">
        <g transform="matrix(0,2.352855,-2.352855,0,1902.800075,96.741968)">
            <g transform="matrix(1,0,0,1,27.978153,-118.032801)">
                <g transform="matrix(0.591457,-0,0,0.591457,-26.914708,133.202099)">
                    <path d="M15.62,21.41L55.99,61.86L96.66,21.4C100.1,17.98 107.17,19.38 110.95,20.78C112.71,21.43 112.56,24.14 111.49,25.19L71.73,64.34C62.31,70.41 50.62,70.45 41.05,64.76L28.44,52.49L0.53,24.95C0.25,24.11 -0.07,22.69 0.02,22.02C0.38,19.37 12.3,18.07 15.62,21.41Z" style="fill:rgb(214,212,205);fill-rule:nonzero;"/>
                    <path d="M35.67,20.75C36.69,13.53 38.91,10.58 44.82,6.25C45.92,5.45 48.65,4.08 50.02,3.79C59.45,1.79 66.85,3.83 72.93,11.52C77.61,17.44 78.15,27 74.31,33.96C72.83,36.64 69.9,39.52 67.5,41.33C61.85,45.59 49.91,45.36 44.74,41.42C37.75,36.1 34.44,29.56 35.68,20.76L35.67,20.75Z" style="fill:rgb(214,212,205);fill-rule:nonzero;"/>
                    <path d="M182.7,64.91L142.33,24.46L101.66,64.92C98.22,68.34 91.15,66.94 87.37,65.54C85.61,64.89 85.76,62.18 86.83,61.13L126.59,21.98C136.01,15.91 147.7,15.87 157.27,21.56L169.88,33.83L197.78,61.37C198.06,62.21 198.38,63.63 198.29,64.3C197.93,66.95 186.01,68.25 182.69,64.91L182.7,64.91Z" style="fill:rgb(214,212,205);fill-rule:nonzero;"/>
                    <path d="M162.65,65.57C161.63,72.79 159.41,75.74 153.5,80.07C152.4,80.87 149.67,82.24 148.3,82.53C138.87,84.53 131.47,82.49 125.39,74.8C120.71,68.88 120.17,59.32 124.01,52.36C125.49,49.68 128.42,46.8 130.82,44.99C136.47,40.73 148.41,40.96 153.58,44.9C160.57,50.22 163.88,56.76 162.64,65.56L162.65,65.57Z" style="fill:rgb(214,212,205);fill-rule:nonzero;"/>
                    <path d="M187.7,21.41L228.07,61.86L268.74,21.4C272.18,17.98 279.25,19.38 283.03,20.78C284.79,21.43 284.64,24.14 283.57,25.19L243.81,64.34C234.39,70.41 222.7,70.45 213.13,64.76L200.52,52.49L172.62,24.95C172.34,24.11 172.02,22.69 172.11,22.02C172.47,19.37 184.39,18.07 187.71,21.41L187.7,21.41Z" style="fill:rgb(214,212,205);fill-rule:nonzero;"/>
                    <path d="M207.76,20.75C208.78,13.53 211,10.58 216.91,6.25C218.01,5.45 220.74,4.08 222.11,3.79C231.54,1.79 238.94,3.83 245.02,11.52C249.7,17.44 250.24,27 246.4,33.96C244.92,36.64 241.99,39.52 239.59,41.33C233.94,45.59 222,45.36 216.83,41.42C209.84,36.1 206.53,29.56 207.77,20.76L207.76,20.75Z" style="fill:rgb(214,212,205);fill-rule:nonzero;"/>
                    <path d="M352.74,64.91L312.37,24.46L271.7,64.92C268.26,68.34 261.19,66.94 257.41,65.54C255.65,64.89 255.8,62.18 256.87,61.13L296.63,21.98C306.05,15.91 317.74,15.87 327.31,21.56L339.92,33.83L367.82,61.37C368.1,62.21 368.42,63.63 368.33,64.3C367.97,66.95 356.05,68.25 352.73,64.91L352.74,64.91Z" style="fill:rgb(214,212,205);fill-rule:nonzero;"/>
                    <path d="M332.69,65.57C331.67,72.79 329.45,75.74 323.54,80.07C322.44,80.87 319.71,82.24 318.34,82.53C308.91,84.53 301.51,82.49 295.43,74.8C290.75,68.88 290.21,59.32 294.05,52.36C295.53,49.68 298.46,46.8 300.86,44.99C306.51,40.73 318.45,40.96 323.62,44.9C330.61,50.22 333.92,56.76 332.68,65.56L332.69,65.57Z" style="fill:rgb(214,212,205);fill-rule:nonzero;"/>
                    <path d="M350.6,18.34L390.97,58.79L431.64,18.33C435.08,14.91 442.15,16.31 445.93,17.71C447.69,18.36 447.54,21.07 446.47,22.12L406.71,61.27C397.29,67.34 385.6,67.38 376.03,61.69L363.42,49.42L335.52,21.88C335.24,21.04 334.92,19.62 335.01,18.95C335.37,16.3 347.29,15 350.61,18.34L350.6,18.34Z" style="fill:rgb(214,212,205);fill-rule:nonzero;"/>
                    <path d="M370.65,17.68C371.67,10.46 373.89,7.51 379.8,3.18C380.9,2.38 383.63,1.01 385,0.72C394.43,-1.28 401.83,0.76 407.91,8.45C412.59,14.37 413.13,23.93 409.29,30.89C407.81,33.57 404.88,36.45 402.48,38.26C396.83,42.52 384.89,42.29 379.72,38.35C372.73,33.03 369.42,26.49 370.66,17.69L370.65,17.68Z" style="fill:rgb(214,212,205);fill-rule:nonzero;"/>
                    <path d="M517.68,61.84L477.31,21.39L436.64,61.85C433.2,65.27 426.13,63.87 422.35,62.47C420.59,61.82 420.74,59.11 421.81,58.06L461.57,18.91C470.99,12.84 482.68,12.8 492.25,18.49L504.86,30.76L532.76,58.3C533.04,59.14 533.36,60.56 533.27,61.23C532.91,63.88 520.99,65.18 517.67,61.84L517.68,61.84Z" style="fill:rgb(214,212,205);fill-rule:nonzero;"/>
                    <path d="M497.63,62.5C496.61,69.72 494.39,72.67 488.48,77C487.38,77.8 484.65,79.17 483.28,79.46C473.85,81.46 466.45,79.42 460.37,71.73C455.69,65.81 455.15,56.25 458.99,49.29C460.47,46.61 463.4,43.73 465.8,41.92C471.45,37.66 483.39,37.89 488.56,41.83C495.55,47.15 498.86,53.69 497.62,62.49L497.63,62.5Z" style="fill:rgb(214,212,205);fill-rule:nonzero;"/>
                    <path d="M522.68,18.34L563.05,58.79L603.72,18.33C607.16,14.91 614.23,16.31 618.01,17.71C619.77,18.36 619.62,21.07 618.55,22.12L578.79,61.27C569.37,67.34 557.68,67.38 548.11,61.69L535.5,49.42L507.6,21.88C507.32,21.04 507,19.62 507.09,18.95C507.45,16.3 519.37,15 522.69,18.34L522.68,18.34Z" style="fill:rgb(214,212,205);fill-rule:nonzero;"/>
                    <path d="M542.73,17.68C543.75,10.46 545.97,7.51 551.88,3.18C552.98,2.38 555.71,1.01 557.08,0.72C566.51,-1.28 573.91,0.76 579.99,8.45C584.67,14.37 585.21,23.93 581.37,30.89C579.89,33.57 576.96,36.45 574.56,38.26C568.91,42.52 556.97,42.29 551.8,38.35C544.81,33.03 541.5,26.49 542.74,17.69L542.73,17.68Z" style="fill:rgb(214,212,205);fill-rule:nonzero;"/>
                    <path d="M687.72,61.84L647.35,21.39L606.68,61.85C603.24,65.27 596.17,63.87 592.39,62.47C590.63,61.82 590.78,59.11 591.85,58.06L631.61,18.91C641.03,12.84 652.72,12.8 662.29,18.49L674.9,30.76L702.8,58.3C703.08,59.14 703.4,60.56 703.31,61.23C702.95,63.88 691.03,65.18 687.71,61.84L687.72,61.84Z" style="fill:rgb(214,212,205);fill-rule:nonzero;"/>
                    <path d="M667.67,62.5C666.65,69.72 664.43,72.67 658.52,77C657.42,77.8 654.69,79.17 653.32,79.46C643.89,81.46 636.49,79.42 630.41,71.73C625.73,65.81 625.19,56.25 629.03,49.29C630.51,46.61 633.44,43.73 635.84,41.92C641.49,37.66 653.43,37.89 658.6,41.83C665.59,47.15 668.9,53.69 667.66,62.49L667.67,62.5Z" style="fill:rgb(214,212,205);fill-rule:nonzero;"/>
                </g>
                <g transform="matrix(0.591457,-0,0,0.591457,-26.914708,89.014242)">
                    <path d="M15.62,21.41L55.99,61.86L96.66,21.4C100.1,17.98 107.17,19.38 110.95,20.78C112.71,21.43 112.56,24.14 111.49,25.19L71.73,64.34C62.31,70.41 50.62,70.45 41.05,64.76L28.44,52.49L0.53,24.95C0.25,24.11 -0.07,22.69 0.02,22.02C0.38,19.37 12.3,18.07 15.62,21.41Z" style="fill:rgb(214,212,205);fill-rule:nonzero;"/>
                    <path d="M35.67,20.75C36.69,13.53 38.91,10.58 44.82,6.25C45.92,5.45 48.65,4.08 50.02,3.79C59.45,1.79 66.85,3.83 72.93,11.52C77.61,17.44 78.15,27 74.31,33.96C72.83,36.64 69.9,39.52 67.5,41.33C61.85,45.59 49.91,45.36 44.74,41.42C37.75,36.1 34.44,29.56 35.68,20.76L35.67,20.75Z" style="fill:rgb(214,212,205);fill-rule:nonzero;"/>
                    <path d="M182.7,64.91L142.33,24.46L101.66,64.92C98.22,68.34 91.15,66.94 87.37,65.54C85.61,64.89 85.76,62.18 86.83,61.13L126.59,21.98C136.01,15.91 147.7,15.87 157.27,21.56L169.88,33.83L197.78,61.37C198.06,62.21 198.38,63.63 198.29,64.3C197.93,66.95 186.01,68.25 182.69,64.91L182.7,64.91Z" style="fill:rgb(214,212,205);fill-rule:nonzero;"/>
                    <path d="M162.65,65.57C161.63,72.79 159.41,75.74 153.5,80.07C152.4,80.87 149.67,82.24 148.3,82.53C138.87,84.53 131.47,82.49 125.39,74.8C120.71,68.88 120.17,59.32 124.01,52.36C125.49,49.68 128.42,46.8 130.82,44.99C136.47,40.73 148.41,40.96 153.58,44.9C160.57,50.22 163.88,56.76 162.64,65.56L162.65,65.57Z" style="fill:rgb(214,212,205);fill-rule:nonzero;"/>
                    <path d="M187.7,21.41L228.07,61.86L268.74,21.4C272.18,17.98 279.25,19.38 283.03,20.78C284.79,21.43 284.64,24.14 283.57,25.19L243.81,64.34C234.39,70.41 222.7,70.45 213.13,64.76L200.52,52.49L172.62,24.95C172.34,24.11 172.02,22.69 172.11,22.02C172.47,19.37 184.39,18.07 187.71,21.41L187.7,21.41Z" style="fill:rgb(214,212,205);fill-rule:nonzero;"/>
                    <path d="M207.76,20.75C208.78,13.53 211,10.58 216.91,6.25C218.01,5.45 220.74,4.08 222.11,3.79C231.54,1.79 238.94,3.83 245.02,11.52C249.7,17.44 250.24,27 246.4,33.96C244.92,36.64 241.99,39.52 239.59,41.33C233.94,45.59 222,45.36 216.83,41.42C209.84,36.1 206.53,29.56 207.77,20.76L207.76,20.75Z" style="fill:rgb(214,212,205);fill-rule:nonzero;"/>
                    <path d="M352.74,64.91L312.37,24.46L271.7,64.92C268.26,68.34 261.19,66.94 257.41,65.54C255.65,64.89 255.8,62.18 256.87,61.13L296.63,21.98C306.05,15.91 317.74,15.87 327.31,21.56L339.92,33.83L367.82,61.37C368.1,62.21 368.42,63.63 368.33,64.3C367.97,66.95 356.05,68.25 352.73,64.91L352.74,64.91Z" style="fill:rgb(214,212,205);fill-rule:nonzero;"/>
                    <path d="M332.69,65.57C331.67,72.79 329.45,75.74 323.54,80.07C322.44,80.87 319.71,82.24 318.34,82.53C308.91,84.53 301.51,82.49 295.43,74.8C290.75,68.88 290.21,59.32 294.05,52.36C295.53,49.68 298.46,46.8 300.86,44.99C306.51,40.73 318.45,40.96 323.62,44.9C330.61,50.22 333.92,56.76 332.68,65.56L332.69,65.57Z" style="fill:rgb(214,212,205);fill-rule:nonzero;"/>
                    <path d="M350.6,18.34L390.97,58.79L431.64,18.33C435.08,14.91 442.15,16.31 445.93,17.71C447.69,18.36 447.54,21.07 446.47,22.12L406.71,61.27C397.29,67.34 385.6,67.38 376.03,61.69L363.42,49.42L335.52,21.88C335.24,21.04 334.92,19.62 335.01,18.95C335.37,16.3 347.29,15 350.61,18.34L350.6,18.34Z" style="fill:rgb(214,212,205);fill-rule:nonzero;"/>
                    <path d="M370.65,17.68C371.67,10.46 373.89,7.51 379.8,3.18C380.9,2.38 383.63,1.01 385,0.72C394.43,-1.28 401.83,0.76 407.91,8.45C412.59,14.37 413.13,23.93 409.29,30.89C407.81,33.57 404.88,36.45 402.48,38.26C396.83,42.52 384.89,42.29 379.72,38.35C372.73,33.03 369.42,26.49 370.66,17.69L370.65,17.68Z" style="fill:rgb(214,212,205);fill-rule:nonzero;"/>
                    <path d="M517.68,61.84L477.31,21.39L436.64,61.85C433.2,65.27 426.13,63.87 422.35,62.47C420.59,61.82 420.74,59.11 421.81,58.06L461.57,18.91C470.99,12.84 482.68,12.8 492.25,18.49L504.86,30.76L532.76,58.3C533.04,59.14 533.36,60.56 533.27,61.23C532.91,63.88 520.99,65.18 517.67,61.84L517.68,61.84Z" style="fill:rgb(214,212,205);fill-rule:nonzero;"/>
                    <path d="M497.63,62.5C496.61,69.72 494.39,72.67 488.48,77C487.38,77.8 484.65,79.17 483.28,79.46C473.85,81.46 466.45,79.42 460.37,71.73C455.69,65.81 455.15,56.25 458.99,49.29C460.47,46.61 463.4,43.73 465.8,41.92C471.45,37.66 483.39,37.89 488.56,41.83C495.55,47.15 498.86,53.69 497.62,62.49L497.63,62.5Z" style="fill:rgb(214,212,205);fill-rule:nonzero;"/>
                    <path d="M522.68,18.34L563.05,58.79L603.72,18.33C607.16,14.91 614.23,16.31 618.01,17.71C619.77,18.36 619.62,21.07 618.55,22.12L578.79,61.27C569.37,67.34 557.68,67.38 548.11,61.69L535.5,49.42L507.6,21.88C507.32,21.04 507,19.62 507.09,18.95C507.45,16.3 519.37,15 522.69,18.34L522.68,18.34Z" style="fill:rgb(214,212,205);fill-rule:nonzero;"/>
                    <path d="M542.73,17.68C543.75,10.46 545.97,7.51 551.88,3.18C552.98,2.38 555.71,1.01 557.08,0.72C566.51,-1.28 573.91,0.76 579.99,8.45C584.67,14.37 585.21,23.93 581.37,30.89C579.89,33.57 576.96,36.45 574.56,38.26C568.91,42.52 556.97,42.29 551.8,38.35C544.81,33.03 541.5,26.49 542.74,17.69L542.73,17.68Z" style="fill:rgb(214,212,205);fill-rule:nonzero;"/>
                    <path d="M687.72,61.84L647.35,21.39L606.68,61.85C603.24,65.27 596.17,63.87 592.39,62.47C590.63,61.82 590.78,59.11 591.85,58.06L631.61,18.91C641.03,12.84 652.72,12.8 662.29,18.49L674.9,30.76L702.8,58.3C703.08,59.14 703.4,60.56 703.31,61.23C702.95,63.88 691.03,65.18 687.71,61.84L687.72,61.84Z" style="fill:rgb(214,212,205);fill-rule:nonzero;"/>
                    <path d="M667.67,62.5C666.65,69.72 664.43,72.67 658.52,77C657.42,77.8 654.69,79.17 653.32,79.46C643.89,81.46 636.49,79.42 630.41,71.73C625.73,65.81 625.19,56.25 629.03,49.29C630.51,46.61 633.44,43.73 635.84,41.92C641.49,37.66 653.43,37.89 658.6,41.83C665.59,47.15 668.9,53.69 667.66,62.49L667.67,62.5Z" style="fill:rgb(214,212,205);fill-rule:nonzero;"/>
                </g>
            </g>
        </g>
    </g>
</svg>
